<svg height="30" viewBox="0 0 30 30" width="30" xmlns="http://www.w3.org/2000/svg"><path d="m15 293.56268c-6.1596389 0-11 5.77154-11 12.6836 0 1.89149.3726103 3.69049 1.0253906 5.3164h1.4316406a5.0291294 2.9509082 82.372998 0 0 3.2265626 2.98243 5.0291294 2.9509082 82.372998 0 0 2.2382812-5.40235 5.0291294 2.9509082 82.372998 0 0 -3.3105469-4.58008 5.0291294 2.9509082 82.372998 0 0 -.2949219.0176 5.0291294 2.9509082 82.372998 0 0 -2.2285156 3.08008c-.051761-.46207-.080078-.93297-.080078-1.41406 0-5.99667 4.1106934-10.68946 8.9921874-10.68946 4.881491 0 8.992188 4.69279 8.992188 10.68946 0 .48577-.02928.96138-.08203 1.42773a2.9509082 5.0291294 7.627002 0 0 -2.226562-3.09375 2.9509082 5.0291294 7.627002 0 0 -.294922-.0176 2.9509082 5.0291294 7.627002 0 0 -3.310547 4.58008 2.9509082 5.0291294 7.627002 0 0 2.238281 5.40235 2.9509082 5.0291294 7.627002 0 0 3.226563-2.98243h1.43164c.652778-1.62591 1.025389-3.42491 1.025389-5.3164 0-6.91206-4.840364-12.6836-11-12.6836z" transform="translate(0 -289.0625)"/></svg>